<mxfile host="app.diagrams.net" modified="2024-02-21T19:26:55.711Z" agent="Mozilla/5.0 (Windows NT 10.0; Win64; x64) AppleWebKit/537.36 (KHTML, like Gecko) Chrome/121.0.0.0 Safari/537.36" etag="J-iiFfhU9-mKY0usFaxj" version="23.1.5" type="github">
  <diagram name="Page-1" id="X0Gp_EbehSSbwlbDEH0-">
    <mxGraphModel dx="2653" dy="962" grid="1" gridSize="10" guides="1" tooltips="1" connect="1" arrows="1" fold="1" page="1" pageScale="1" pageWidth="850" pageHeight="1100" math="0" shadow="0">
      <root>
        <mxCell id="0" />
        <mxCell id="1" parent="0" />
        <mxCell id="DkanD4Q4uxkd17T_so8d-28" value="" style="whiteSpace=wrap;html=1;aspect=fixed;" vertex="1" parent="1">
          <mxGeometry x="-520" y="80" width="800" height="800" as="geometry" />
        </mxCell>
        <mxCell id="DkanD4Q4uxkd17T_so8d-3" value="Kick Participant" style="ellipse;whiteSpace=wrap;html=1;" vertex="1" parent="1">
          <mxGeometry x="60" y="380" width="160" height="80" as="geometry" />
        </mxCell>
        <mxCell id="DkanD4Q4uxkd17T_so8d-4" value="Accept Participant" style="ellipse;whiteSpace=wrap;html=1;" vertex="1" parent="1">
          <mxGeometry x="60" y="140" width="160" height="80" as="geometry" />
        </mxCell>
        <mxCell id="DkanD4Q4uxkd17T_so8d-5" value="Leave Event" style="ellipse;whiteSpace=wrap;html=1;" vertex="1" parent="1">
          <mxGeometry x="-460" y="320" width="160" height="80" as="geometry" />
        </mxCell>
        <mxCell id="DkanD4Q4uxkd17T_so8d-6" value="Join Event" style="ellipse;whiteSpace=wrap;html=1;" vertex="1" parent="1">
          <mxGeometry x="-460" y="140" width="160" height="80" as="geometry" />
        </mxCell>
        <mxCell id="DkanD4Q4uxkd17T_so8d-7" value="Select Event" style="ellipse;whiteSpace=wrap;html=1;" vertex="1" parent="1">
          <mxGeometry x="-200" y="500" width="160" height="80" as="geometry" />
        </mxCell>
        <mxCell id="DkanD4Q4uxkd17T_so8d-8" value="View Event Details" style="ellipse;whiteSpace=wrap;html=1;" vertex="1" parent="1">
          <mxGeometry x="-200" y="320" width="160" height="80" as="geometry" />
        </mxCell>
        <mxCell id="DkanD4Q4uxkd17T_so8d-11" value="&amp;lt;&amp;lt;include&amp;gt;&amp;gt;" style="endArrow=classic;html=1;rounded=0;exitX=1;exitY=0.5;exitDx=0;exitDy=0;entryX=0;entryY=0.5;entryDx=0;entryDy=0;" edge="1" parent="1" source="DkanD4Q4uxkd17T_so8d-5" target="DkanD4Q4uxkd17T_so8d-8">
          <mxGeometry width="50" height="50" relative="1" as="geometry">
            <mxPoint x="-60" y="390" as="sourcePoint" />
            <mxPoint x="-40" y="350" as="targetPoint" />
          </mxGeometry>
        </mxCell>
        <mxCell id="DkanD4Q4uxkd17T_so8d-12" value="&amp;lt;&amp;lt;include&amp;gt;&amp;gt;" style="endArrow=classic;html=1;rounded=0;exitX=1;exitY=0.5;exitDx=0;exitDy=0;entryX=0;entryY=0.5;entryDx=0;entryDy=0;" edge="1" parent="1" source="DkanD4Q4uxkd17T_so8d-6" target="DkanD4Q4uxkd17T_so8d-8">
          <mxGeometry width="50" height="50" relative="1" as="geometry">
            <mxPoint x="-90" y="461" as="sourcePoint" />
            <mxPoint x="-10" y="531" as="targetPoint" />
          </mxGeometry>
        </mxCell>
        <mxCell id="DkanD4Q4uxkd17T_so8d-13" value="&amp;lt;&amp;lt;include&amp;gt;&amp;gt;" style="endArrow=classic;html=1;rounded=0;exitX=0.5;exitY=1;exitDx=0;exitDy=0;entryX=0.5;entryY=0;entryDx=0;entryDy=0;" edge="1" parent="1" source="DkanD4Q4uxkd17T_so8d-8" target="DkanD4Q4uxkd17T_so8d-7">
          <mxGeometry width="50" height="50" relative="1" as="geometry">
            <mxPoint x="-5" y="400" as="sourcePoint" />
            <mxPoint x="110" y="470" as="targetPoint" />
          </mxGeometry>
        </mxCell>
        <mxCell id="DkanD4Q4uxkd17T_so8d-14" value="&amp;lt;&amp;lt;extend&amp;gt;&amp;gt;" style="endArrow=classic;html=1;rounded=0;entryX=1;entryY=0.5;entryDx=0;entryDy=0;exitX=0;exitY=0.5;exitDx=0;exitDy=0;" edge="1" parent="1" source="DkanD4Q4uxkd17T_so8d-4" target="DkanD4Q4uxkd17T_so8d-6">
          <mxGeometry x="-0.0634" y="3" width="50" height="50" relative="1" as="geometry">
            <mxPoint x="70" y="385" as="sourcePoint" />
            <mxPoint x="-310" y="510" as="targetPoint" />
            <mxPoint as="offset" />
          </mxGeometry>
        </mxCell>
        <mxCell id="DkanD4Q4uxkd17T_so8d-15" value="Edit Event Details" style="ellipse;whiteSpace=wrap;html=1;" vertex="1" parent="1">
          <mxGeometry x="60" y="260" width="160" height="80" as="geometry" />
        </mxCell>
        <mxCell id="DkanD4Q4uxkd17T_so8d-16" value="" style="endArrow=classic;html=1;rounded=0;exitX=0;exitY=0.5;exitDx=0;exitDy=0;entryX=1;entryY=0.5;entryDx=0;entryDy=0;" edge="1" parent="1" source="DkanD4Q4uxkd17T_so8d-15" target="DkanD4Q4uxkd17T_so8d-8">
          <mxGeometry width="50" height="50" relative="1" as="geometry">
            <mxPoint y="520" as="sourcePoint" />
            <mxPoint x="50" y="470" as="targetPoint" />
          </mxGeometry>
        </mxCell>
        <mxCell id="DkanD4Q4uxkd17T_so8d-17" value="&amp;lt;&amp;lt;include&amp;gt;&amp;gt;" style="edgeLabel;html=1;align=center;verticalAlign=middle;resizable=0;points=[];" vertex="1" connectable="0" parent="DkanD4Q4uxkd17T_so8d-16">
          <mxGeometry x="-0.296" y="-4" relative="1" as="geometry">
            <mxPoint as="offset" />
          </mxGeometry>
        </mxCell>
        <mxCell id="DkanD4Q4uxkd17T_so8d-18" value="" style="endArrow=classic;html=1;rounded=0;exitX=0;exitY=0.5;exitDx=0;exitDy=0;entryX=1;entryY=0.5;entryDx=0;entryDy=0;" edge="1" parent="1" source="DkanD4Q4uxkd17T_so8d-3" target="DkanD4Q4uxkd17T_so8d-8">
          <mxGeometry width="50" height="50" relative="1" as="geometry">
            <mxPoint x="50" y="450" as="sourcePoint" />
            <mxPoint x="-30" y="530" as="targetPoint" />
          </mxGeometry>
        </mxCell>
        <mxCell id="DkanD4Q4uxkd17T_so8d-19" value="&amp;lt;&amp;lt;include&amp;gt;&amp;gt;" style="edgeLabel;html=1;align=center;verticalAlign=middle;resizable=0;points=[];" vertex="1" connectable="0" parent="DkanD4Q4uxkd17T_so8d-18">
          <mxGeometry x="-0.296" y="-4" relative="1" as="geometry">
            <mxPoint as="offset" />
          </mxGeometry>
        </mxCell>
        <mxCell id="DkanD4Q4uxkd17T_so8d-20" value="Create Event" style="ellipse;whiteSpace=wrap;html=1;" vertex="1" parent="1">
          <mxGeometry x="60" y="500" width="160" height="80" as="geometry" />
        </mxCell>
        <mxCell id="DkanD4Q4uxkd17T_so8d-21" value="Search Events" style="ellipse;whiteSpace=wrap;html=1;" vertex="1" parent="1">
          <mxGeometry x="-460" y="500" width="160" height="80" as="geometry" />
        </mxCell>
        <mxCell id="DkanD4Q4uxkd17T_so8d-22" value="" style="endArrow=classic;html=1;rounded=0;entryX=0.004;entryY=0.6;entryDx=0;entryDy=0;entryPerimeter=0;exitX=1;exitY=0.5;exitDx=0;exitDy=0;" edge="1" parent="1" source="DkanD4Q4uxkd17T_so8d-21" target="DkanD4Q4uxkd17T_so8d-7">
          <mxGeometry width="50" height="50" relative="1" as="geometry">
            <mxPoint x="-280" y="710" as="sourcePoint" />
            <mxPoint x="300" y="600" as="targetPoint" />
          </mxGeometry>
        </mxCell>
        <mxCell id="DkanD4Q4uxkd17T_so8d-23" value="&amp;lt;&amp;lt;extend&amp;gt;&amp;gt;" style="edgeLabel;html=1;align=center;verticalAlign=middle;resizable=0;points=[];" vertex="1" connectable="0" parent="DkanD4Q4uxkd17T_so8d-22">
          <mxGeometry x="-0.0723" y="-2" relative="1" as="geometry">
            <mxPoint as="offset" />
          </mxGeometry>
        </mxCell>
        <mxCell id="DkanD4Q4uxkd17T_so8d-25" value="View Event List" style="ellipse;whiteSpace=wrap;html=1;" vertex="1" parent="1">
          <mxGeometry x="-200" y="740" width="160" height="80" as="geometry" />
        </mxCell>
        <mxCell id="DkanD4Q4uxkd17T_so8d-26" value="&amp;lt;&amp;lt;include&amp;gt;&amp;gt;" style="endArrow=classic;html=1;rounded=0;exitX=0.5;exitY=1;exitDx=0;exitDy=0;entryX=0.5;entryY=0;entryDx=0;entryDy=0;" edge="1" parent="1" source="DkanD4Q4uxkd17T_so8d-7" target="DkanD4Q4uxkd17T_so8d-25">
          <mxGeometry width="50" height="50" relative="1" as="geometry">
            <mxPoint x="-110" y="510" as="sourcePoint" />
            <mxPoint x="-110" y="590" as="targetPoint" />
          </mxGeometry>
        </mxCell>
        <mxCell id="DkanD4Q4uxkd17T_so8d-30" value="Actor" style="shape=umlActor;verticalLabelPosition=bottom;verticalAlign=top;html=1;outlineConnect=0;" vertex="1" parent="1">
          <mxGeometry x="400" y="400" width="80" height="160" as="geometry" />
        </mxCell>
        <mxCell id="DkanD4Q4uxkd17T_so8d-32" value="Actor" style="shape=umlActor;verticalLabelPosition=bottom;verticalAlign=top;html=1;outlineConnect=0;" vertex="1" parent="1">
          <mxGeometry x="-720" y="400" width="80" height="160" as="geometry" />
        </mxCell>
        <mxCell id="DkanD4Q4uxkd17T_so8d-36" value="" style="endArrow=none;html=1;rounded=0;" edge="1" parent="1" source="DkanD4Q4uxkd17T_so8d-30" target="DkanD4Q4uxkd17T_so8d-4">
          <mxGeometry relative="1" as="geometry">
            <mxPoint x="500" y="670" as="sourcePoint" />
            <mxPoint x="660" y="670" as="targetPoint" />
          </mxGeometry>
        </mxCell>
        <mxCell id="DkanD4Q4uxkd17T_so8d-37" value="" style="endArrow=none;html=1;rounded=0;" edge="1" parent="1" source="DkanD4Q4uxkd17T_so8d-15" target="DkanD4Q4uxkd17T_so8d-30">
          <mxGeometry relative="1" as="geometry">
            <mxPoint x="350" y="670" as="sourcePoint" />
            <mxPoint x="510" y="670" as="targetPoint" />
          </mxGeometry>
        </mxCell>
        <mxCell id="DkanD4Q4uxkd17T_so8d-38" value="" style="endArrow=none;html=1;rounded=0;" edge="1" parent="1" source="DkanD4Q4uxkd17T_so8d-3" target="DkanD4Q4uxkd17T_so8d-30">
          <mxGeometry relative="1" as="geometry">
            <mxPoint x="380" y="650" as="sourcePoint" />
            <mxPoint x="540" y="650" as="targetPoint" />
          </mxGeometry>
        </mxCell>
        <mxCell id="DkanD4Q4uxkd17T_so8d-39" value="" style="endArrow=none;html=1;rounded=0;" edge="1" parent="1" source="DkanD4Q4uxkd17T_so8d-20" target="DkanD4Q4uxkd17T_so8d-30">
          <mxGeometry relative="1" as="geometry">
            <mxPoint x="260" y="730" as="sourcePoint" />
            <mxPoint x="420" y="730" as="targetPoint" />
          </mxGeometry>
        </mxCell>
        <mxCell id="DkanD4Q4uxkd17T_so8d-40" value="" style="endArrow=none;html=1;rounded=0;" edge="1" parent="1" source="DkanD4Q4uxkd17T_so8d-25" target="DkanD4Q4uxkd17T_so8d-30">
          <mxGeometry relative="1" as="geometry">
            <mxPoint x="440" y="740" as="sourcePoint" />
            <mxPoint x="600" y="740" as="targetPoint" />
          </mxGeometry>
        </mxCell>
        <mxCell id="DkanD4Q4uxkd17T_so8d-41" value="" style="endArrow=none;html=1;rounded=0;" edge="1" parent="1" source="DkanD4Q4uxkd17T_so8d-32" target="DkanD4Q4uxkd17T_so8d-6">
          <mxGeometry relative="1" as="geometry">
            <mxPoint x="-690" y="320" as="sourcePoint" />
            <mxPoint x="-530" y="320" as="targetPoint" />
          </mxGeometry>
        </mxCell>
        <mxCell id="DkanD4Q4uxkd17T_so8d-42" value="" style="endArrow=none;html=1;rounded=0;" edge="1" parent="1" source="DkanD4Q4uxkd17T_so8d-32" target="DkanD4Q4uxkd17T_so8d-5">
          <mxGeometry relative="1" as="geometry">
            <mxPoint x="-780" y="300" as="sourcePoint" />
            <mxPoint x="-620" y="300" as="targetPoint" />
          </mxGeometry>
        </mxCell>
        <mxCell id="DkanD4Q4uxkd17T_so8d-43" value="" style="endArrow=none;html=1;rounded=0;" edge="1" parent="1" source="DkanD4Q4uxkd17T_so8d-32" target="DkanD4Q4uxkd17T_so8d-21">
          <mxGeometry relative="1" as="geometry">
            <mxPoint x="-720" y="300" as="sourcePoint" />
            <mxPoint x="-560" y="300" as="targetPoint" />
          </mxGeometry>
        </mxCell>
        <mxCell id="DkanD4Q4uxkd17T_so8d-44" value="" style="endArrow=none;html=1;rounded=0;" edge="1" parent="1" source="DkanD4Q4uxkd17T_so8d-32" target="DkanD4Q4uxkd17T_so8d-25">
          <mxGeometry relative="1" as="geometry">
            <mxPoint x="-860" y="620" as="sourcePoint" />
            <mxPoint x="-700" y="620" as="targetPoint" />
          </mxGeometry>
        </mxCell>
      </root>
    </mxGraphModel>
  </diagram>
</mxfile>
